<?xml version="1.0" encoding="UTF-8" standalone="no"?>
<svg
   id="KFC_Colonel_Side_Logo"
   version="1.1"
   viewBox="0 0 949.99999 881.9309"
   width="950"
   height="881.93091"
   xmlns="http://www.w3.org/2000/svg">
  <defs id="defs1">
    <style id="style1">
      .st0 {
        fill: #fff;
      }

      .st1 {
        fill: #f5002b;
      }
    </style>
  </defs>
  <path
     class="st0"
     d="m 945.13795,65.903392 c -4.5973,-5.04922 -13.0111,-10.99678 -28.3979,-16.23422 C 880.29715,37.265372 806.27575,21.239156 655.92817,7.309373 629.59817,4.870076 601.24748,2.789365 570.42836,1.34063 540.10753,0.27888 508.26223,0 475.00001,0 441.73779,0 409.8925,0.27888 379.57167,1.34063 348.75258,2.789365 320.4019,4.870076 294.07191,7.309373 143.72434,21.239156 69.702897,37.265372 33.259977,49.669172 c -15.38742,5.23765 -23.8012296,11.18545 -28.3983096,16.2348 -2.88953,3.17382 -4.72648998,7.21398 -4.85399998,11.50424 -0.0295,0.99065 0.0235,2.02898 0.20479,3.07006 L 129.01851,819.91243 c 1.07008,5.96154 4.55635,14.60705 15.07199,22.02566 5.72508,4.03873 13.01572,7.42241 22.28879,10.34336 20.03447,6.31029 46.81638,9.25473 50.55106,9.87155 19.93441,2.59261 107.23803,12.82879 145.99753,15.15905 45.66431,2.78997 71.62024,4.4996 112.07213,4.61887 40.45194,-0.11927 66.40782,-1.8289 112.07214,-4.61887 38.75956,-2.33026 126.06317,-12.56644 145.99759,-15.15905 3.73458,-0.61682 30.51654,-3.56126 50.55111,-9.87155 9.273,-2.92095 16.5636,-6.30463 22.2887,-10.34336 10.5156,-7.41861 14.0019,-16.06412 15.072,-22.02566 l 128.806,-739.434158 c 0.1815,-1.04157 0.2343,-2.0804 0.2047,-3.07148 -0.1278,-4.29002 -1.9649,-8.32984 -4.8543,-11.5034 z"
     id="path1"
     style="stroke-width:0.999997" />
  <path
     class="st1"
     d="m 33.520377,175.41191 c -8.35433,-46.37368 -7.8993,-75.686138 -7.16682,-87.563368 0.64581,-10.48571 2.37555,-13.89656 6.62036,-15.81867 6.36404,-2.88554 11.75831,-4.68345 18.81467,-6.30485 5.66961,-1.30008 8.98745,1.30589 8.37546,7.30369 -2.44319,23.89819 -2.00507,38.158278 -0.63312,50.234208 3.2206,28.35016 12.82796,53.78731 26.88572,53.78731 17.076483,0 16.926383,-35.72415 13.36068,-56.35364 -1.87771,-10.86464 -6.419,-25.601718 -20.3198,-52.777058 -2.55312,-4.9942 -0.83448,-8.35855 4.32303,-9.76009 14.35424,-3.89337 28.708473,-6.85712 41.233093,-8.62914 5.78165,-0.81757 8.79878,-0.46348 11.62936,2.27144 10.96241,10.59405 19.76119,34.23983 24.63067,68.012268 13.41829,93.06658 -8.05785,176.58499 -57.54538,176.58499 -32.131483,0 -57.992473,-53.18219 -70.207923,-120.98709 z m 72.748163,354.9457 c 2.46222,-5.45981 6.25412,-6.61349 14.7543,-6.03163 18.13081,1.24089 47.68916,2.22335 78.86831,3.47639 7.00986,0.27957 9.71307,-4.21732 8.81992,-11.83652 L 195.1443,402.47323 c -0.85562,-7.2873 -6.65629,-8.76073 -10.51583,-2.26087 -2.8327,4.7696 -7.20698,6.25994 -13.66404,6.61561 l -17.09267,1.14386 -10.95395,-69.42122 c -0.65162,-4.10688 -3.16088,-6.02106 -7.29946,-5.63157 l -15.89954,1.49457 c -4.30875,0.40905 -6.31331,3.03616 -5.63578,7.31056 l 10.61308,66.58714 -18.71111,0.9312 -8.593203,-49.27708 c -4.57775,-26.45342 -3.09112,-34.5472 -1.39943,-43.61235 1.39943,-6.79845 -0.46613,-9.15445 -5.54911,-8.39237 l -23.73561,3.56095 c -6.02316,0.89948 -7.34174,3.98426 -5.96768,11.53159 l 36.103,204.69627 c 1.48663,8.15931 6.700693,8.65715 9.425573,2.60809 z M 921.52625,74.272082 c -7.2049,-3.77868 -15.3452,-7.06363 -24.635,-9.52585 -5.6294,-1.49298 -8.9155,0.97924 -8.3712,6.7889 1.3227,14.1485 3.7582,32.424598 1.5348,56.389578 -1.8461,19.90546 -11.4598,49.04941 -26.2923,49.04941 -17.5849,0 -19.4441,-35.0852 -15.1945,-56.18399 3.9039,-19.4013 11.1801,-36.245778 20.3811,-54.487038 2.4458,-4.8457 0.6796,-8.2777 -4.5514,-9.4631 -15.9064,-3.60798 -28.0732,-6.28159 -40.2427,-8.0219 -4.1428,-0.59296 -7.1705,0.25209 -9.6666,3.70681 -14.1147,19.54556 -23.174,54.247628 -27.1647,85.521918 -11.9322,93.58926 12.893,158.53873 55.9325,158.53873 34.7078,0 64.5124,-52.24887 78.3588,-147.4516 3.3595,-23.08908 5.6864,-42.62415 6.0908,-59.167918 0.2647,-10.79699 -1.6854,-13.33954 -6.1796,-15.69395 z m -54.7591,330.171898 c -2.0348,3.41932 -4.8083,4.4673 -8.7249,4.4673 h -8.6661 l 10.7657,-66.24059 c 0.7028,-4.27863 -1.3022,-6.89148 -5.6168,-7.32536 -4.9773,-0.66431 -9.9546,-1.16214 -14.9324,-1.49245 -4.1449,-0.41486 -6.6563,1.53103 -7.2873,5.65058 l -10.6025,69.02285 -24.7512,-0.52076 8.5916,-54.56271 c 3.1355,-20.15914 6.9015,-27.09289 13.0246,-38.27779 3.7385,-6.83176 3.9208,-10.69975 -2.153,-11.10246 l -38.592,-2.68207 c -7.93039,-0.52479 -11.28422,3.8067 -12.2217,11.42008 L 739.3732,532.40919 c -0.88941,7.23446 4.86106,8.31204 8.84318,3.40029 5.11735,-6.42112 8.63604,-8.56783 20.92812,-8.68674 26.21395,-0.25421 52.09545,-1.43749 76.44655,-3.55461 6.9861,-0.60723 8.9383,-3.77921 9.9715,-9.51858 l 19.0398,-107.96326 c 1.1284,-6.27736 -4.444,-7.33728 -7.8352,-1.64231 z m -48.1858,319.26644 c 0.8171,-4.46098 -3.0192,-6.50617 -6.9802,-1.53523 -4.5117,5.66167 -6.2102,7.26825 -17.6086,9.61843 -3.3971,0.70081 -7.3319,1.3281 -10.7834,1.95539 l 28.4891,-40.55501 c 13.1704,-19.10692 18.1827,-33.73862 23.9495,-66.10264 l 14.5605,-82.72039 c 0.872,-4.89273 -5.2759,-6.09927 -7.4374,-0.6733 -2.9791,7.47176 -7.4184,22.91574 -17.1675,38.83641 -8.6846,14.18301 -23.9093,32.85816 -39.6419,50.59947 -10.7948,-18.21378 -21.19984,-36.42703 -31.99314,-54.64081 -4.47579,-7.55366 -8.39239,-16.89045 -9.25387,-20.58034 -1.61557,-6.91473 -7.50082,-6.79 -8.61061,2.0722 l -15.15238,127.46792 c -0.90422,7.20856 2.90667,8.34164 6.38093,3.40028 4.95621,-7.04368 14.69492,-5.92381 24.42068,11.33288 l 18.97639,33.67203 c -10.87047,1.707 -21.71727,3.14398 -32.30917,4.32621 -10.71877,1.19595 -12.32876,-0.48941 -16.0614,-6.82381 -2.84542,-4.83144 -6.42328,-3.47007 -7.31268,3.77708 l -12.1991,102.66335 c -0.65009,5.29285 2.19207,8.10856 7.54192,7.4311 l 17.92071,-2.33096 c 31.9477,-4.23927 70.74482,-10.77809 73.98482,-28.98651 z m -571.4216,115.83227 -12.7853,-107.44422 c -0.80199,-7.27243 -5.80062,-8.58525 -8.1782,-3.40035 -2.80508,6.32207 -4.99219,8.3032 -15.99932,8.68901 -13.47142,0.47033 -26.08822,-1.20829 -39.5585,-4.21097 l 35.5652,-39.98224 c 15.58659,-17.79605 19.64919,-33.35272 15.71798,-66.10263 l -9.85147,-82.72028 c -1.14354,-9.52281 -7.65982,-7.38038 -8.40729,0.1738 -0.76829,7.78893 -3.83616,17.21026 -8.55307,24.17524 l -44.26291,64.41345 -32.56814,-59.30046 c -4.77864,-9.16308 -8.12746,-15.88875 -9.65382,-20.7098 -2.57865,-8.11496 -8.24863,-5.74155 -6.91918,2.19962 l 22.46525,127.47015 c 1.2064,7.18725 4.06259,8.30921 6.31332,3.39957 2.88119,-6.48675 7.15735,-6.4485 17.21822,14.12801 l 15.08487,30.94974 c -1.67858,-0.43505 -3.92136,-0.87049 -5.59955,-1.34004 -11.84132,-3.31319 -15.10609,-5.56544 -19.90743,-11.48534 -3.98232,-4.90967 -7.2558,-2.46431 -5.98086,4.71123 l 5.4496,30.9747 4.9778,28.31246 5.95057,33.45571 c 3.88425,21.83102 58.88166,26.88719 91.90534,31.31747 5.20992,0.70088 8.15661,-2.43247 7.57689,-7.67383 z"
     id="path2"
     style="stroke-width:0.999997" />
  <path
     d="m 341.04823,69.146092 c -3.81315,10.10376 -9.17639,16.24894 -16.59585,21.17622 -15.70898,9.58336 -35.18514,12.143048 -43.52764,12.819348 -1.90895,0.15461 -3.02504,2.3023 -2.03523,3.941 7.55207,12.50508 17.31113,18.22727 27.77036,19.68412 0.62481,0.0865 1.23359,0.36668 1.59859,0.88071 0.94394,1.32946 -0.41815,2.80291 -4.81033,4.70589 -12.88053,5.58473 -28.14897,2.95565 -46.36188,8.15561 -2.23311,0.63787 -3.08436,3.35722 -1.61333,5.15426 0,0 35.74412,37.00309 -3.19327,65.90929 -3.26247,2.42186 -5.39916,6.02453 -5.54278,10.08453 -0.40081,11.35001 3.46913,29.04032 6.73309,38.79005 7.43811,22.21546 11.88082,40.93438 13.75266,49.5063 -0.21393,0.26801 -0.28947,0.36202 -0.50227,0.62985 -14.38382,1.97329 -24.22943,22.58774 -11.33416,56.22743 13.68738,35.70347 16.59231,56.7965 21.90996,82.00977 3.89105,18.44792 12.36167,33.0881 31.01062,30.8825 0.78559,-0.0908 2.21092,-0.14344 2.89616,-0.12049 0.21169,0.70949 0.33665,1.96882 0.40212,2.86464 0.5864,8.06851 2.55373,29.30758 7.66453,41.94695 2.98177,7.36444 9.41513,27.92572 23.14075,52.82397 0,0 1.19274,2.1434 -0.41685,4.11316 -6.18885,7.88591 -8.84684,14.80272 -9.44367,15.82518 -3.33186,5.70764 -8.52939,16.31869 -13.52512,19.74007 -10.62019,6.84611 -24.45472,12.08151 -29.22795,14.86017 -1.5736,0.87605 -2.23553,1.83173 -1.93487,4.14355 0.35251,3.21417 1.10471,13.20655 1.7493,18.54192 0.50246,3.98633 3.48404,6.35186 5.1468,7.30755 5.01065,2.88087 10.38406,3.94062 22.114,21.87899 6.94813,10.62504 14.14378,25.54582 26.17679,47.27109 3.02411,5.97776 9.87302,2.17772 7.6386,-2.60556 -7.0218,-17.55431 -14.28645,-47.74298 -12.36724,-65.26505 1.64037,-14.96219 11.70364,-40.74433 23.21256,-54.86105 0,0 0.41685,-0.48308 0.777,0 0.36128,0.48306 0.84621,1.12709 0.84621,1.12709 15.08902,20.01685 35.05141,40.43695 61.51413,57.66135 l 16.10103,9.61376 c -13.36621,-5.07033 -56.94141,-0.40212 -56.94141,-0.40212 -1.81868,-0.0933 -3.22162,1.56204 -2.83685,3.34304 3.19343,14.78518 4.66265,28.78445 3.08715,43.90533 -0.45061,4.32295 3.88001,3.62602 3.88001,3.62602 35.49867,0 55.99095,-6.56845 55.99095,-6.56845 l -2.69491,4.07829 c -17.15259,26.49797 -28.27058,88.24078 -39.97217,133.03224 -0.36127,1.38316 0.72498,2.70086 2.15273,2.76019 13.39642,0.55432 23.42033,0.68545 37.2944,0.92174 1.66164,0.0279 3.2069,-1.04489 3.67448,-2.63952 17.0142,-57.93983 31.9514,-120.09667 32.22483,-140.23031 0.0123,-0.94469 0.73243,-1.57454 1.67282,-1.48242 10.9561,1.07808 13.10938,-0.78238 13.10938,1.63201 0.16711,28.62661 6.49043,89.39642 -2.22453,140.51042 -0.22997,1.35299 0.61866,2.44611 1.99064,2.44425 8.84982,-0.0132 22.89213,-0.30383 35.00684,-0.61868 1.4451,-0.038 2.65761,-1.04667 2.94465,-2.46326 9.57722,-47.19818 7.31426,-106.73713 -9.09097,-137.1168 -0.2475,-0.45715 0.10146,-0.9423 0.61848,-0.89321 13.31248,1.25823 26.99352,-0.0465 39.482,2.15213 2.97674,0.52392 5.90871,-0.89762 7.12365,-3.66588 5.35476,-12.21449 4.64956,-30.95001 0.29207,-44.20915 -0.61735,-1.88247 -2.74415,-2.8846 -4.68406,-2.48621 -12.87195,2.64064 -31.49183,1.00754 -46.68735,1.85076 l 8.78043,-7.28218 c 16.78666,-12.58994 46.57862,-31.04719 71.75701,-60.38275 0.92791,-1.08065 2.57837,-1.15488 3.49632,-0.0655 12.38707,14.69996 21.49275,46.38427 21.19822,58.648 -0.43039,17.819 -4.06913,35.09282 -11.08286,53.85387 -1.77803,4.21407 -4.12365,9.70032 -4.47238,10.57267 -2.23278,4.77932 4.61127,8.58959 7.63838,2.60555 11.31589,-20.42439 22.87684,-47.27822 33.51977,-59.92672 15.19278,-18.05718 21.48135,-13.95484 22.17952,-19.17979 0.74974,-4.45037 1.45869,-13.3179 1.45869,-15.89513 0,-2.80663 -0.29693,-3.7308 -2.16151,-5.14064 -5.39544,-4.22749 -20.64034,-11.72192 -28.05872,-16.7889 -9.47202,-6.46992 -13.86158,-18.46787 -15.78409,-23.29052 0,-0.15773 -3.49178,-8.54843 -7.10167,-15.16809 v -0.5629 c 11.59414,-22.02018 17.8313,-47.03593 20.13155,-78.72658 1.0051,-11.15996 1.37687,-17.53103 1.37687,-17.53103 0.19007,-0.77477 0.73152,-0.82531 1.38262,-0.69364 5.08711,1.14817 10.32583,1.25038 10.32583,1.25038 7.28833,0.1673 18.94761,-2.22565 32.05828,-61.56467 13.77636,-62.35214 31.62797,-95.42092 2.55112,-107.59252 -0.15463,-0.27417 -0.26483,-0.47262 -0.41946,-0.74736 4.25734,-21.64063 14.99387,-39.59316 16.77788,-64.37149 0.0865,-1.21606 -0.54067,-2.36423 -1.53407,-3.0713 C 695.60282,239.729 690.02925,233.08394 689.4861,227.73962 677.88731,76.776672 524.50531,-27.886852 349.85086,57.470052 c -5.52406,3.07346 -8.80263,11.67604 -8.80263,11.67604 z m -54.32707,96.474528 c -5.41649,-8.99996 -2.83573,-7.60503 5.48439,-7.62611 25.26642,-0.5629 42.22486,-10.29547 67.2339,-20.83528 25.00885,-10.53849 50.70575,-4.02213 33.09527,1.29421 -17.61047,5.3156 -40.53598,19.76991 -53.02316,45.19208 -12.48718,25.42534 -14.59159,9.13126 -25.07936,30.88511 -15.56726,38.07563 -13.43983,70.70742 -15.15448,84.91879 l -7.8e-4,-7.7e-4 c -0.26335,1.81737 -1.97329,2.25941 -2.20065,2.31033 l -0.023,0.005 c -3.7e-4,0 -0.003,7.4e-4 -0.003,7.4e-4 v 0 c -2.48398,0.53716 -4.95917,1.07394 -7.27678,1.57827 -2.77716,0.33834 -3.66384,-1.2418 -3.80521,-1.5404 -4.73443,-10.99396 -14.34951,-45.93253 -14.69698,-63.00511 -0.40081,-19.93684 15.35611,-34.72278 18.88977,-43.22736 3.53589,-8.50514 1.97441,-20.9496 -3.43947,-29.94919 z m 11.43413,255.4627 c -8.79405,0.77327 -9.77137,-11.11445 -18.27595,-35.91478 -8.50216,-24.80052 -14.79713,-52.57535 1.90037,-54.70271 12.08617,-0.25851 13.20842,10.598 9.8234,25.02695 -3.38631,14.42578 15.34641,64.81614 6.55218,65.59054 z m 20.8694,-131.19489 c 1.13568,-13.64261 7.24376,-18.19687 17.4484,-22.97307 5.02669,-2.15962 7.28087,-6.60738 11.00496,-34.73229 4.89315,-36.93985 41.99322,-112.48584 124.04755,-68.65643 1.58106,0.84434 3.52844,0.60132 4.86591,-0.59702 17.54744,-13.49042 73.77116,-2.71189 104.38209,23.23549 1.99437,1.69186 4.79914,-0.78129 3.37643,-2.97486 -25.53239,-39.36544 -67.68153,-48.4027 -99.28974,-41.29621 -0.21654,0.0489 -0.43682,-0.0246 -0.58901,-0.18689 -38.26688,-41.00283 -83.33717,-48.840628 -144.40703,-24.44839 -3.54839,1.43521 -3.11158,-0.84508 -1.24217,-3.44264 1.81364,-2.52015 23.36717,-24.330138 59.69526,-35.529438 1.92015,-0.59144 3.91826,-1.07152 5.86451,-1.57062 2.81335,-0.72068 6.99644,-2.05313 6.78232,-3.55511 -0.32173,-2.25419 -17.92475,-2.08409 -17.92475,-2.08409 -13.9705,-0.23575 -16.82973,-4.41623 1.34122,-11.37742 162.70293,-52.397048 295.02248,57.135568 264.74804,217.924518 -1.07637,9.17957 -1.50576,11.82841 -4.40212,-1.71909 -3.14739,-14.72886 -17.39765,-55.24937 -25.24642,-70.04837 -2.83068,-5.33853 -5.92122,-10.04609 -8.66908,-13.64205 0,0 -5.3956,-7.60634 -7.26375,-6.3388 -0.76711,0.57651 0.81659,4.39833 0.81659,4.39833 0.89072,2.44405 2.04635,5.73692 3.14382,9.9174 2.7712,10.55156 1.69374,22.13247 0.77681,28.22564 -0.43179,2.87098 0.20534,5.79884 1.72972,8.26957 16.65271,26.95697 20.22468,45.0121 20.74929,58.3604 0.10392,2.60613 -2.24929,4.69395 -4.81646,4.23625 -5.05416,-0.90198 -15.84008,-3.82481 -42.80381,-3.82481 -41.87216,0 -64.9646,-2.03466 -84.89977,8.76496 -19.93647,10.79961 -17.92475,13.54992 -23.58241,13.54992 -5.65785,0 -3.85894,-1.24273 -15.00621,-1.24273 -4.85472,0 -8.40815,1.83528 -12.51925,1.83528 -8.44154,0 -16.6962,-21.66656 -55.32305,-21.66656 h -79.62819 c -1.83341,0 -3.11401,-1.42458 -3.1597,-6.81087 z m 185.94012,53.58662 c 0.43438,-0.0796 0.76208,0.42376 0.76208,0.42376 4.49607,6.74148 11.057,10.16547 15.41822,11.82468 1.4574,0.55432 3.05581,0.60057 4.56041,0.18744 23.93994,-6.58443 39.64502,-2.43174 50.04755,5.26804 3.63735,2.83685 4.51583,4.69395 13.56726,2.07476 2.4088,-0.6983 4.6048,-0.92044 6.58183,-0.73747 0,0 3.41242,0.38049 4.32913,1.95558 0.35005,0.65932 0.20907,1.71834 -0.59891,3.17519 -7.06805,13.62602 -20.83451,24.96148 -46.41129,24.96148 -41.18188,0 -49.30915,-27.83862 -48.6571,-47.46884 0,-0.52074 -0.0345,-1.58423 0.40082,-1.66462 z m 29.47656,-10.10056 c 1.22986,-3.68996 5.68247,-9.86351 16.57981,-11.00926 19.29674,-2.02775 22.26731,15.98839 37.93042,21.66917 0.46776,0.16935 0.37973,0.85796 -0.11639,0.88071 -3.60752,0.16711 -9.19728,-0.64197 -17.01774,-5.36689 -9.2357,-5.57857 -21.41495,-12.94674 -36.014,-5.04533 -0.76078,0.41069 -1.63552,-0.30924 -1.3621,-1.1284 z m 37.39214,-16.86872 c -0.59871,-0.35568 -0.36742,-1.2681 0.32789,-1.27929 3.82555,-0.0638 7.55561,-0.0785 11.11146,-0.0828 0,0 10.22665,-0.12627 17.59316,3.13993 3.81787,1.56447 5.56737,7.58359 5.76279,15.23506 0.0264,0.98852 -0.83868,1.76982 -1.82107,1.65101 -16.5218,-1.98561 -22.77947,-12.6002 -32.97423,-18.6639 z m -204.4216,-0.58695 c -14.17101,6.54415 -24.90254,18.99738 -36.27997,21.98456 -1.0689,0.27902 -2.12176,-0.56103 -2.11318,-1.66668 0.0236,-3.14797 0.48272,-6.66179 1.82875,-9.8747 2.74705,-6.56767 9.27506,-10.04796 16.37315,-10.59352 5.93612,-0.45601 12.50825,-0.99727 19.84229,-1.2998 0.83277,-0.034 1.1062,1.10061 0.34896,1.45014 z m 9.19989,11.90246 c 10.37288,-7.954 29.07072,-8.01089 34.2856,0.64346 0.66678,1.10527 -0.30924,2.47931 -1.57378,2.21017 -19.97228,-4.26777 -30.5492,15.26714 -55.78205,12.58864 0,0 -2.22957,-0.61792 1.1642,-1.60643 3.39247,-0.98851 10.47676,-5.07089 21.90603,-13.83584 z m -38.34596,32.89178 c 4.91273,0.24993 10.27123,1.78661 15.15822,5.47096 1.99306,1.50199 4.78291,0.957 6.35932,-0.97732 4.68406,-5.74681 12.5823,-11.5796 30.6085,-13.18622 12.51246,-1.11303 24.22804,7.19384 37.2103,1.56819 1.30558,-0.57576 2.14489,0.51702 0.9402,1.51616 0,0 -5.7483,4.60666 -2.27153,9.36217 0,0 4.03687,5.52467 2.34092,11.61037 -0.79175,2.5196 -3.73883,6.84239 -9.07867,9.55503 -8.18919,4.1497 -17.20089,7.23387 -30.2448,6.97611 -25.51244,0 -39.80357,-9.96385 -47.50894,-22.34043 -0.008,-0.009 -0.0123,-0.0149 -0.0171,-0.0235 -1.80395,-2.58879 -3.37886,-5.10353 -4.75346,-7.53771 -0.52223,-0.92789 0.19305,-2.04752 1.2571,-1.99381 z m 88.97376,44.40538 c 7.51122,1.84162 2.12176,7.26185 2.41757,13.49247 0.2945,6.23062 4.18552,10.5094 0.91055,12.89974 -6.84052,3.62431 -12.92007,-5.90031 -12.94245,-13.71256 -0.0185,-6.72003 3.92198,-13.2722 9.61433,-12.67965 z m -98.02034,-13.89945 c 1.34475,-0.85124 4.14841,-3.01012 10.33072,0.51478 l -0.0595,-0.0996 c 10.71437,8.7711 25.87762,13.06051 43.16637,13.06051 9.54625,0 19.09884,-0.78932 27.98074,-2.59942 -2.16522,2.56977 -5.27438,6.80657 -6.83437,11.47274 -2.53264,7.58339 -1.40182,10.13637 -8.26584,11.7331 -6.8616,1.59841 -14.77587,12.46181 -28.9161,18.37686 -11.79671,4.93268 -20.47941,-1.49714 -28.40747,-14.67832 -9.1281,-15.17127 -12.75315,-35.83271 -8.99456,-37.78065 z m 40.45429,182.94491 c -34.7099,-36.89974 -53.16043,-97.68499 -14.88123,-103.64722 8.63084,-1.34177 10.18467,11.97072 11.20415,33.80253 1.01948,21.83237 13.6885,52.56024 19.81524,52.56024 6.12412,0 7.39613,-17.76062 12.57502,-17.76062 5.17888,0 1.09483,16.98809 11.82282,34.93261 17.44447,29.18504 -18.39495,23.65104 -40.536,0.11246 z m 54.24165,-86.50246 c -13.05361,0 -30.24107,-2.75404 -42.00327,-10.01832 -1.03421,-0.63712 -0.80276,-2.20606 0.36145,-2.54868 3.79329,-1.12225 10.55212,-3.37513 17.42229,-7.19004 3.55455,-2.13613 7.02741,-4.57347 10.4568,-6.92278 l 0.0336,0.0377 c 7.683,-5.263 15.15692,-10.07949 22.90314,-10.07949 12.46367,0 17.10689,13.63647 41.03453,13.63647 1.19275,0 2.36069,-0.0785 3.50867,-0.22214 17.86413,-1.55812 30.84613,-14.48155 41.84755,-14.48155 10.2106,0 16.32484,16.34667 37.79295,24.28594 2.02534,0.56531 3.81063,0.9928 5.37565,1.31267 1.19145,0.24302 1.52176,1.76981 0.5629,2.51698 -5.93855,4.61356 -18.74,9.35843 -37.87465,9.35843 -38.87436,0 -36.87756,-8.99212 -52.32039,-8.99212 -14.44686,0 -16.70366,9.30696 -49.10119,9.30696 z m 89.28207,13.47811 c 0,2.98904 -9.2111,11.20174 -38.1382,11.20174 -28.92598,0 -31.94226,-9.33475 -31.94226,-12.07406 0,-2.61732 15.5195,-0.19043 35.04023,-0.19043 19.52186,0 35.04023,-1.9289 35.04023,1.06275 z M 674.96,373.16014 c -10.04983,37.87596 -17.16508,78.34928 -29.11159,80.69262 -7.00877,1.12839 -8.14943,-2.35006 -11.27224,-1.84405 -11.73737,2.59383 -15.50344,24.27101 -15.53198,42.58837 -0.0271,18.31568 -6.16977,50.85869 -33.12621,89.53627 -16.40039,23.52814 -33.19805,33.01937 -44.73755,36.76192 -19.38589,6.49585 -23.55239,-7.17718 -27.44135,-5.71772 -2.749,1.02861 2.01434,8.64186 -1.25448,19.41853 -3.94418,13.00736 -21.97784,24.14791 -20.68606,40.79953 0.19416,3.16045 -2.24057,4.20025 -5.79754,2.98289 -42.76799,-14.63617 -55.75743,-60.93818 -39.22705,-86.27996 9.28401,-14.23162 4.63949,-29.6088 2.88273,-35.96812 -1.75564,-6.35614 3.84532,-5.43515 7.36518,0.10575 2.06972,3.17593 4.69134,8.92591 7.56549,9.09284 1.84162,0.10575 2.48751,-7.75742 1.1823,-14.65687 -1.30521,-6.89945 -14.24561,-14.19861 -14.24561,-14.19861 -1.72356,-0.92435 -2.84972,-2.0852 -2.84972,-4.21014 0,-5.33294 5.89155,-5.39001 28.81576,-3.94417 22.92681,1.44808 50.76151,-7.82045 61.05511,-10.36784 13.31735,-3.29417 15.68419,9.54066 14.26016,24.49166 -1.1021,10.73097 -2.73277,12.07498 -1.58124,12.93574 1.23974,0.8878 7.07944,-2.29317 14.38381,-15.57339 2.80608,-4.93139 5.69366,-11.17264 8.34381,-18.91942 3.76848,-11.02847 16.00703,-23.10662 22.95386,-37.25544 7.66454,-15.60994 8.4218,-29.95776 6.72915,-31.02852 -4.31527,-2.72943 -10.0485,9.07791 -23.13084,5.09532 -4.75588,-1.44808 -13.32965,-6.5311 -21.51008,-16.72958 -3.97885,-5.09738 -6.75546,-9.90697 -7.44798,-11.00049 -10.84289,-17.68657 -28.51529,-28.4819 -35.01057,-24.01679 -3.25147,2.86408 1.59599,6.43355 1.41787,14.95976 -0.23762,11.39403 -22.34155,19.28069 -41.9934,19.28069 -19.65185,0 -32.12541,-11.68853 -32.12541,-29.7567 0,-9.46922 9.5925,-23.51676 11.58893,-37.15975 h -0.002 c 1.60046,-10.13656 1.67413,-25.01147 6.17729,-33.43808 0,0 4.26851,-9.08538 14.4655,-6.4785 12.01027,2.97245 11.27037,19.65036 18.71649,40.74246 8.2955,23.49158 36.68321,30.59433 64.7656,30.59433 28.08462,0 50.36534,-12.36146 55.65819,-38.2736 l 4.61864,-23.66055 c 1.33376,-6.78532 2.73669,-12.25684 5.21972,-14.83779 2.74041,-2.64138 11.30434,-5.45604 16.14934,-5.4165 1.89025,0.0155 3.5767,1.32069 4.23866,3.09237 1.50948,4.03146 1.59339,11.33341 0.90553,23.33062 -0.86358,15.07801 -3.39492,20.47101 -0.68522,20.88544 8.12834,1.24534 15.40682,-8.3839 15.34749,-12.96968 -0.0566,-4.58764 -3.81678,-27.43761 9.80851,-27.43761 13.62544,0 11.96265,14.75814 4.15342,43.75276 z"
     id="path3"
     style="stroke-width:0.999997" />
</svg>
